<svg width="520" height="520" viewBox="0 0 520 520" fill="none" xmlns="http://www.w3.org/2000/svg">
<circle cx="260" cy="260" r="260" fill="#FFD700"/>
<path d="M108.4 392.6C101.2 392.333 94.2667 390.467 87.6 387C81.2 383.533 75.8667 377.533 71.6 369C67.3333 360.467 65.2 348.733 65.2 333.8C65.2 331.933 65.2 330.067 65.2 328.2C65.2 326.067 65.3333 324.067 65.6 322.2C66.6667 308.867 69.8667 294.067 75.2 277.8C80.8 261.267 88 244.467 96.8 227.4C105.6 210.333 115.6 194.2 126.8 179C138 163.533 149.733 150.333 162 139.4C164.933 136.733 167.867 134.6 170.8 133C173.733 131.133 176.8 129.667 180 128.6C169.867 130.467 159.2 132.067 148 133.4C137.067 134.733 126.533 135.933 116.4 137C106.533 138.067 98.1333 139.4 91.2 141C77.0667 144.2 66.2667 150.333 58.8 159.4C51.6 168.467 48.1333 179.4 48.4 192.2C44.1333 187.667 40.9333 183 38.8 178.2C36.9333 173.4 36 168.867 36 164.6C36 159.267 37.0667 154.2 39.2 149.4C41.6 144.333 44.4 140.067 47.6 136.6C54.2667 128.867 62.6667 123.267 72.8 119.8C83.2 116.333 94 114.2 105.2 113.4C116.667 112.333 127.467 111.8 137.6 111.8H219.6C221.2 111.8 221.2 112.867 219.6 115C218.267 117.133 216.267 119.533 213.6 122.2C210.933 124.867 208.4 127 206 128.6C198.8 132.867 190.533 140.733 181.2 152.2C171.867 163.4 162.4 177.133 152.8 193.4C143.467 209.4 134.933 227.133 127.2 246.6C124.533 253 121.6 261 118.4 270.6C115.467 280.2 112.8 290.333 110.4 301C108.267 311.4 107.2 321.267 107.2 330.6C107.2 340.467 109.067 348.867 112.8 355.8C116.533 362.467 123.067 365.8 132.4 365.8C139.6 365.8 148.133 361.533 158 353C167.867 344.467 178.267 333.4 189.2 319.8C200.133 305.933 210.8 291.4 221.2 276.2C228.4 265.267 234.667 253.8 240 241.8C245.333 229.8 250.4 217.933 255.2 206.2C260 194.467 265.067 183.533 270.4 173.4C273.6 167.267 278.267 161.133 284.4 155C290.533 148.6 297.333 143.4 304.8 139.4C312.533 135.133 320.4 133 328.4 133C329.467 133 330.4 133 331.2 133C332.267 133 333.333 133.133 334.4 133.4C336.267 133.667 337.2 134.067 337.2 134.6C337.467 135.133 338.133 135.933 339.2 137C330.4 149 321.067 164.867 311.2 184.6C301.6 204.333 293.867 226.467 288 251C285.333 261.933 283.333 272.333 282 282.2C280.933 291.8 280.4 300.733 280.4 309C280.4 326.6 283.333 340.467 289.2 350.6C295.067 360.733 303.6 365.8 314.8 365.8C325.467 365.8 335.6 362.067 345.2 354.6C355.067 346.867 364.133 336.733 372.4 324.2C380.933 311.667 388.667 298.067 395.6 283.4C402.533 268.733 408.533 254.467 413.6 240.6C416.267 233.667 419.2 225.133 422.4 215C425.6 204.867 428.4 194.333 430.8 183.4C433.2 172.2 434.4 161.933 434.4 152.6C434.4 143.533 432.8 136.067 429.6 130.2C426.4 124.067 420.8 121 412.8 121C408.533 121 403.733 121.933 398.4 123.8C399.2 119 402.667 115.133 408.8 112.2C414.933 109 421.867 107.4 429.6 107.4C436.267 107.4 442.8 108.733 449.2 111.4C455.6 114.067 461.067 118.333 465.6 124.2C470.133 130.067 472.667 138.067 473.2 148.2C474 162.067 472.267 177.267 468 193.8C464 210.333 458 227.133 450 244.2C442.267 261.267 433.067 277.8 422.4 293.8C412 309.8 400.8 324.333 388.8 337.4C381.6 345.133 372.8 353 362.4 361C352.267 369 341.2 375.667 329.2 381C317.2 386.067 304.8 388.6 292 388.6C290.133 388.6 288.267 388.6 286.4 388.6C284.533 388.333 282.533 388.067 280.4 387.8C266.533 385.667 256.667 377.8 250.8 364.2C244.933 350.333 242 333.667 242 314.2C242 304.333 242.667 294.067 244 283.4C245.333 272.733 247.067 261.933 249.2 251C241.2 266.733 232 283.533 221.6 301.4C211.2 319 199.733 335 187.2 349.4C176.8 361.4 166.8 370.467 157.2 376.6C147.867 382.733 139.067 387 130.8 389.4C122.533 391.533 115.067 392.6 108.4 392.6Z" fill="#0057B8"/>
</svg>

